<svg width="24" height="25" viewBox="0 0 24 25" fill="none" xmlns="http://www.w3.org/2000/svg">
<path d="M20.625 3.18848H3.375C2.96016 3.18848 2.625 3.52363 2.625 3.93848V21.1885C2.625 21.6033 2.96016 21.9385 3.375 21.9385H20.625C21.0398 21.9385 21.375 21.6033 21.375 21.1885V3.93848C21.375 3.52363 21.0398 3.18848 20.625 3.18848ZM18.4594 8.66113H16.9617C15.7875 8.66113 15.5602 9.21895 15.5602 10.0393V11.8463H18.3633L17.9977 14.6752H15.5602V21.9385H12.6375V14.6775H10.193V11.8463H12.6375V9.76035C12.6375 7.33926 14.1164 6.01973 16.2773 6.01973C17.3133 6.01973 18.2016 6.09707 18.4617 6.13223V8.66113H18.4594Z" fill="white"/>
</svg>
