<svg width="24" height="25" viewBox="0 0 24 25" fill="none" xmlns="http://www.w3.org/2000/svg">
<path d="M20.625 3.18848H3.375C2.96016 3.18848 2.625 3.52363 2.625 3.93848V21.1885C2.625 21.6033 2.96016 21.9385 3.375 21.9385H20.625C21.0398 21.9385 21.375 21.6033 21.375 21.1885V3.93848C21.375 3.52363 21.0398 3.18848 20.625 3.18848ZM8.18672 19.1658H5.40469V10.2174H8.18672V19.1658ZM6.79688 8.99395C6.47795 8.99395 6.16619 8.89937 5.90102 8.72219C5.63584 8.54501 5.42917 8.29317 5.30712 7.99852C5.18507 7.70388 5.15314 7.37966 5.21536 7.06686C5.27758 6.75407 5.43115 6.46675 5.65667 6.24124C5.88218 6.01572 6.1695 5.86215 6.48229 5.79993C6.79509 5.73771 7.11931 5.76964 7.41395 5.89169C7.7086 6.01374 7.96044 6.22041 8.13762 6.48559C8.3148 6.75076 8.40937 7.06252 8.40937 7.38144C8.40703 8.27207 7.68516 8.99395 6.79688 8.99395ZM18.6023 19.1658H15.8227V14.8135C15.8227 13.7752 15.8039 12.4416 14.3766 12.4416C12.9305 12.4416 12.7078 13.5713 12.7078 14.7385V19.1658H9.93047V10.2174H12.5977V11.4408H12.6352C13.0055 10.7377 13.9125 9.99473 15.2672 9.99473C18.0844 9.99473 18.6023 11.8486 18.6023 14.258V19.1658Z" fill="white"/>
</svg>
