<svg width="24" height="25" viewBox="0 0 24 25" fill="none" xmlns="http://www.w3.org/2000/svg">
<path d="M21.7504 6.52364C21.0332 6.83302 20.2527 7.05567 19.4488 7.14239C20.2835 6.64654 20.9085 5.86317 21.2066 4.93927C20.4234 5.40518 19.5654 5.73189 18.6707 5.90489C18.2967 5.50511 17.8445 5.18663 17.342 4.96928C16.8396 4.75194 16.2978 4.6404 15.7504 4.64161C13.5355 4.64161 11.7543 6.43692 11.7543 8.64005C11.7543 8.94942 11.7918 9.2588 11.8527 9.55646C8.53633 9.38302 5.57852 7.79864 3.61211 5.37286C3.25381 5.98485 3.06605 6.68167 3.06836 7.39083C3.06836 8.77833 3.77383 10.0018 4.84961 10.7213C4.21564 10.6963 3.59651 10.5221 3.04258 10.2127V10.2619C3.04258 12.2049 4.41602 13.815 6.24648 14.1854C5.90279 14.2746 5.54924 14.3203 5.19414 14.3213C4.93398 14.3213 4.68789 14.2955 4.43945 14.2604C4.9457 15.8447 6.41992 16.9955 8.17539 17.033C6.80195 18.1088 5.08164 18.7416 3.21367 18.7416C2.87852 18.7416 2.56914 18.7299 2.24805 18.6924C4.01992 19.8291 6.12227 20.4854 8.38633 20.4854C15.7363 20.4854 19.7582 14.3963 19.7582 9.11114C19.7582 8.93771 19.7582 8.76427 19.7465 8.59083C20.5246 8.0213 21.2066 7.31583 21.7504 6.52364Z" fill="white"/>
</svg>
