<svg width="16" height="17" viewBox="0 0 16 17" fill="none" xmlns="http://www.w3.org/2000/svg">
<g clip-path="url(#clip0_539_10816)">
<path d="M11.1462 13.3094L10.7196 9.89336C10.6591 9.40951 10.4239 8.96441 10.0583 8.64177C9.69272 8.31913 9.22183 8.14117 8.73422 8.14136H7.26489C6.7775 8.1415 6.30694 8.3196 5.94161 8.64221C5.57628 8.96482 5.34132 9.40973 5.28089 9.89336L4.85355 13.3094C4.8301 13.497 4.84684 13.6875 4.90267 13.8683C4.9585 14.049 5.05213 14.2157 5.17736 14.3575C5.30258 14.4992 5.45653 14.6127 5.62897 14.6904C5.80142 14.7681 5.98842 14.8082 6.17755 14.808H9.82289C10.012 14.8081 10.1989 14.7679 10.3713 14.6902C10.5436 14.6124 10.6975 14.499 10.8226 14.3572C10.9478 14.2155 11.0414 14.0488 11.0971 13.8681C11.1529 13.6874 11.1697 13.497 11.1462 13.3094V13.3094Z" stroke="white" stroke-width="1.33333" stroke-linecap="round" stroke-linejoin="round"/>
<path d="M8 5.47461C9.10457 5.47461 10 4.57918 10 3.47461C10 2.37004 9.10457 1.47461 8 1.47461C6.89543 1.47461 6 2.37004 6 3.47461C6 4.57918 6.89543 5.47461 8 5.47461Z" stroke="white" stroke-width="1.33333"/>
<path d="M2.66683 7.47477C3.40321 7.47477 4.00016 6.87782 4.00016 6.14144C4.00016 5.40506 3.40321 4.80811 2.66683 4.80811C1.93045 4.80811 1.3335 5.40506 1.3335 6.14144C1.3335 6.87782 1.93045 7.47477 2.66683 7.47477Z" stroke="white" stroke-width="1.33333"/>
<path d="M13.3333 7.47477C14.0697 7.47477 14.6667 6.87782 14.6667 6.14144C14.6667 5.40506 14.0697 4.80811 13.3333 4.80811C12.597 4.80811 12 5.40506 12 6.14144C12 6.87782 12.597 7.47477 13.3333 7.47477Z" stroke="white" stroke-width="1.33333"/>
<path d="M2.66672 9.47461H2.46272C2.1471 9.47457 1.84169 9.5865 1.60084 9.79049C1.35999 9.99447 1.19931 10.2773 1.14739 10.5886L0.925391 11.9219C0.893532 12.113 0.903671 12.3087 0.955103 12.4954C1.00654 12.6821 1.09802 12.8553 1.22321 13.0031C1.34839 13.1509 1.50427 13.2696 1.67999 13.351C1.85571 13.4325 2.04706 13.4746 2.24072 13.4746H4.66672M13.3334 9.47461H13.5374C13.853 9.47457 14.1584 9.5865 14.3993 9.79049C14.6401 9.99447 14.8008 10.2773 14.8527 10.5886L15.0747 11.9219C15.1066 12.113 15.0964 12.3087 15.045 12.4954C14.9936 12.6821 14.9021 12.8553 14.7769 13.0031C14.6517 13.1509 14.4958 13.2696 14.3201 13.351C14.1444 13.4325 13.9531 13.4746 13.7594 13.4746H11.3334" stroke="white" stroke-width="1.33333" stroke-linecap="round" stroke-linejoin="round"/>
</g>
<defs>
<clipPath id="clip0_539_10816">
<rect width="16" height="16" fill="white" transform="translate(0 0.141602)"/>
</clipPath>
</defs>
</svg>
