<svg width="16" height="14" viewBox="0 0 16 14" fill="none" xmlns="http://www.w3.org/2000/svg">
    <path d="M1.3335 2.47493C1.3335 2.12131 1.47397 1.78217 1.72402 1.53213C1.97407 1.28208 2.31321 1.1416 2.66683 1.1416H6.66683V13.1416H2.66683C2.31321 13.1416 1.97407 13.0011 1.72402 12.7511C1.47397 12.501 1.3335 12.1619 1.3335 11.8083V2.47493ZM9.3335 1.1416H13.3335C13.6871 1.1416 14.0263 1.28208 14.2763 1.53213C14.5264 1.78217 14.6668 2.12131 14.6668 2.47493V5.80827H9.3335V1.1416ZM9.3335 8.47494H14.6668V11.8083C14.6668 12.1619 14.5264 12.501 14.2763 12.7511C14.0263 13.0011 13.6871 13.1416 13.3335 13.1416H9.3335V8.47494Z" stroke="white" stroke-width="1.33333" stroke-linecap="round" stroke-linejoin="round"/>
</svg>