<svg width="24" height="30" viewBox="0 0 24 30" fill="none" xmlns="http://www.w3.org/2000/svg">
<path d="M16.0005 24.3332C16.0005 25.394 15.5791 26.4115 14.8289 27.1616C14.0788 27.9117 13.0613 28.3332 12.0005 28.3332C10.9396 28.3332 9.9222 27.9117 9.17205 27.1616C8.42191 26.4115 8.00048 25.394 8.00048 24.3332M12.9618 5.6705L11.0071 5.6665C6.54848 5.65584 2.67782 9.2785 2.64715 13.6665V18.7198C2.64715 19.7732 2.51382 20.8012 1.93915 21.6772L1.55648 22.2612C0.973816 23.1465 1.60048 24.3332 2.64715 24.3332H21.3538C22.4005 24.3332 23.0258 23.1465 22.4445 22.2612L22.0618 21.6772C21.4885 20.8012 21.3538 19.7718 21.3538 18.7185V13.6678C21.3005 9.2785 17.4205 5.68117 12.9618 5.6705ZM12.0005 1.6665C12.7077 1.6665 13.386 1.94746 13.8861 2.44755C14.3862 2.94765 14.6671 3.62593 14.6671 4.33317V5.6665H9.33382V4.33317C9.33382 3.62593 9.61477 2.94765 10.1149 2.44755C10.615 1.94746 11.2932 1.6665 12.0005 1.6665Z" stroke="#D9D9D9" stroke-width="2" stroke-linecap="round" stroke-linejoin="round"/>
</svg>
