<svg width="579" height="852" viewBox="0 0 579 852" fill="none" xmlns="http://www.w3.org/2000/svg">
<path opacity="0.4" d="M62.8134 683.852C-114.743 756.444 -323.712 531.281 -323.712 531.281L-62.4757 -71.1962C-62.4757 -71.1962 874.5 200.688 434 303.688C-6.49999 406.688 240.37 611.261 62.8134 683.852Z" fill="#EFDBFF"/>
<path d="M124.809 126.916L81.7679 119.493C81.4982 119.446 81.3342 119.78 81.536 119.965L101.648 138.407C101.669 138.426 101.69 138.441 101.715 138.452C103.453 139.19 110.354 136.4 113.883 134.78C114.038 134.709 114.218 134.794 114.264 134.958C115.12 138.041 116.175 140.906 116.68 142.167C116.729 142.288 116.86 142.358 116.962 142.277C118.013 141.439 118.141 135.599 118.063 132.411C118.06 132.271 118.162 132.152 118.301 132.128C120.93 131.664 124.569 129.261 126.102 128.083" stroke="white" stroke-width="2.02444" stroke-linecap="round"/>
<path d="M113.758 134.418C109.291 132.283 97.9911 126.935 88.5253 122.625" stroke="white" stroke-width="2.02444" stroke-linecap="round"/>
<path d="M117.051 142.371L108.823 137.16" stroke="white" stroke-width="2.02444" stroke-linecap="round"/>
<path d="M115.133 130.303L103.614 126.189" stroke="white" stroke-width="2.02444" stroke-linecap="round"/>
<path d="M121.651 149.642C125.882 151.929 137.435 154.372 149.79 145.853" stroke="white" stroke-width="2.02444" stroke-linecap="round"/>
<path d="M127.918 144.4C134.972 143.347 151.734 137.048 162.346 120.279" stroke="white" stroke-width="2.02444" stroke-linecap="round"/>
<path d="M65.3579 64.7941L121.42 55.2711C121.82 55.2032 122.06 55.6998 121.759 55.9713L95.6322 79.5224C95.6023 79.5494 95.5711 79.5711 95.5339 79.5864C93.2613 80.5228 84.3083 76.9786 79.686 74.9011C79.4587 74.799 79.1934 74.923 79.1256 75.1628C78.0203 79.0689 76.6652 82.6943 76.0028 84.3237C75.9312 84.4998 75.7357 84.6028 75.5914 84.4789C74.2489 83.3268 74.0774 75.9651 74.1741 71.8917C74.179 71.6837 74.0268 71.5072 73.822 71.4706C70.3894 70.8589 65.6637 67.7967 63.6692 66.2918" stroke="white" stroke-width="2.02503" stroke-linecap="round"/>
<path d="M79.464 74.902C85.3418 72.1126 100.211 65.1264 112.668 59.4966" stroke="white" stroke-width="2.02503" stroke-linecap="round"/>
<path d="M75.8233 84.6246L86.7555 78.1396" stroke="white" stroke-width="2.02503" stroke-linecap="round"/>
<path d="M78.2522 69.2331L93.2352 64.3662" stroke="white" stroke-width="2.02503" stroke-linecap="round"/>
<path d="M0.9918 132.16C11.6614 129.497 13.3233 145.858 22.1209 146.123C32.6213 146.439 24.4147 119.741 18.577 109.562C16.1858 105.016 10.0661 105.468 12.3607 112.604C14.798 120.184 35.6373 144.002 40.6174 128.438L43.6259 117.329C44.3988 114.099 46.5245 109.096 52.007 113.227C57.4892 117.357 61.4699 113.158 62.7751 110.541L66.9831 102.562" stroke="white" stroke-width="2.02503" stroke-linecap="round"/>
</svg>
