<svg width="190" height="204" viewBox="0 0 190 204" fill="none" xmlns="http://www.w3.org/2000/svg">
<path d="M2.09933 61.3953L28.3534 56.9357C28.5406 56.9039 28.6531 57.1364 28.5121 57.2635L16.2768 68.2926C16.2628 68.3052 16.2482 68.3153 16.2308 68.3225C15.1665 68.761 10.9738 67.1013 8.80918 66.1284C8.70274 66.0806 8.57851 66.1386 8.54673 66.2509C8.02913 68.0802 7.39454 69.7779 7.08436 70.541C7.05083 70.6235 6.95925 70.6717 6.89168 70.6137C6.26296 70.0742 6.18269 66.6267 6.22794 64.7191C6.23025 64.6217 6.15898 64.539 6.06306 64.5219C4.45556 64.2354 2.24253 62.8014 1.30848 62.0967" stroke="#4BD4FB" stroke-width="0.948324" stroke-linecap="round"/>
<path d="M8.70566 66.1291C11.4582 64.8229 18.4217 61.5512 24.2549 58.9148" stroke="#4BD4FB" stroke-width="0.948324" stroke-linecap="round"/>
<path d="M7.00174 70.6816L12.1213 67.6446" stroke="#4BD4FB" stroke-width="0.948324" stroke-linecap="round"/>
<path d="M8.13732 63.4742L15.1539 61.1951" stroke="#4BD4FB" stroke-width="0.948324" stroke-linecap="round"/>
<path d="M99.3434 108.305L95.6175 135.46C95.5894 135.664 95.73 135.853 95.9338 135.886L124.335 140.398C124.566 140.435 124.775 140.256 124.774 140.022L124.643 101.144C124.643 100.891 124.4 100.71 124.157 100.781L99.6123 107.992C99.469 108.034 99.3637 108.157 99.3434 108.305Z" stroke="#9254DE" stroke-width="0.948324"/>
<path d="M127.464 103.367L125.047 100.918C124.808 100.676 124.397 100.845 124.397 101.184V140.194C124.397 140.434 124.617 140.614 124.852 140.566L130.325 139.457C130.514 139.419 130.644 139.245 130.627 139.053L127.572 103.601C127.564 103.513 127.526 103.43 127.464 103.367Z" fill="#722ED1" stroke="#9254DE" stroke-width="0.948324"/>
<path d="M127.624 103.863H131.473C131.66 103.863 131.819 103.999 131.848 104.184L137.229 138.578C137.265 138.805 137.092 139.011 136.862 139.016L130.34 139.141" stroke="#9254DE" stroke-width="0.948324" stroke-linecap="round"/>
<path d="M105.812 106.139C106.462 101.917 109.027 92.7366 113.815 92.3056C117.177 92.0029 118.32 97.6831 117.85 101.456" stroke="#9254DE" stroke-width="0.948324" stroke-linecap="round"/>
<path d="M64.0837 96.6558C64.6941 98.3526 67.032 101.835 71.5001 102.189C77.0852 102.632 77.8177 104.048 77.604 110.157C77.3904 116.265 80.7311 119.551 85.5159 115.812C96.8009 106.992 91.4903 128.14 87.2228 140.468" stroke="black" stroke-width="0.948324" stroke-linecap="round"/>
<path d="M60.1013 55.249C37.2315 67.0744 21.5993 90.9453 21.5993 118.467C21.5993 157.748 53.4427 189.592 92.7236 189.592C127.655 189.592 156.705 164.409 162.71 131.208C164.294 122.45 163.582 109.477 159.865 98.5525" stroke="black" stroke-width="0.948324" stroke-linecap="round"/>
<path d="M111.881 50.2805C105.45 48.3694 98.6381 47.3433 91.5867 47.3433C81.8477 47.3433 72.566 49.3007 64.1133 52.8435" stroke="black" stroke-width="0.948324" stroke-linecap="round"/>
<path d="M62.7794 192.478L57.3608 195.507" stroke="#F759AB" stroke-width="0.948324" stroke-linecap="round"/>
<path d="M71.0221 196.565C71.2962 197.378 73.3551 200.968 74.3502 202.661" stroke="#F759AB" stroke-width="0.948324" stroke-linecap="round"/>
<path d="M66.4417 196.411C65.9361 197.43 64.3211 200.687 63.5768 202.188" stroke="#F759AB" stroke-width="0.948324" stroke-linecap="round"/>
<path d="M86.8453 184.66C85.3256 189.212 80.207 187.758 78.6897 186.367C74.2326 182.1 68.1724 172.244 69.0259 167.786C69.8793 163.329 67.7931 158.588 63.5256 155.838C60.1117 153.637 59.8904 150.622 60.2065 149.389C60.5226 147.397 61.5152 142.239 62.9566 137.535C64.3981 132.831 71.3967 135.196 74.7158 136.966C76.2016 141.549 80.8041 150.451 87.3286 149.389C93.853 148.327 97.9498 151.981 99.1826 153.941C99.9413 156.565 99.5999 163.007 92.165 167.786C82.8714 173.761 88.9008 178.503 86.8453 184.66Z" fill="black"/>
<path d="M148.484 151.279C145.449 153.934 145.323 149.161 145.639 146.443C146.303 142.649 149.716 141.891 150.76 138.382C151.165 137.019 153.13 136.485 153.794 138.382C154.68 140.914 152.277 147.96 148.484 151.279Z" fill="black"/>
<path d="M47.7736 117.519C46.2563 119.985 38.7645 114.769 38.2904 114.2C36.1092 112.208 31.7817 107.643 31.2728 103.673C30.7986 99.9752 28.6175 93.5266 26.4363 90.1127C31.2728 81.7674 32.6004 77.658 36.9627 73.2325C44.5493 66.6322 51.2508 70.2293 53.4636 72.6633C55.1389 75.3186 60.2725 79.6049 67.4039 75.5082C74.5353 71.4114 76.7607 77.2152 76.982 80.6291C76.7923 84.296 74.4026 91.7245 66.3608 92.1039C56.3085 92.578 56.2137 97.8886 55.6447 102.535C55.1895 106.253 52.3572 105.665 50.9979 104.906C49.6387 103.705 46.1804 102.023 43.2217 104.906C40.2629 107.789 43.5062 111.608 45.4976 113.157C46.8885 114.358 49.0012 115.524 47.7736 117.519Z" fill="black"/>
<path d="M81.5342 67.0684C88.2104 68.0546 86.2334 72.5686 85.4223 74.9395C83.4498 80.7053 91.826 79.8706 93.1986 77.4998C94.9372 74.4968 99.0971 68.5666 101.828 68.8701C104.559 69.1736 106.254 67.0999 106.76 66.0251C107.822 57.6799 99.0466 58.1857 94.5262 59.4817C92.5347 60.6513 87.4707 62.6302 83.1463 61.1888C78.822 59.7473 75.5914 60.0824 74.5166 60.4301C66.2662 65.551 73.189 65.8355 81.5342 67.0684Z" fill="black"/>
<path d="M44.7366 80.3452C43.6935 68.1434 42.2708 35.7737 80.8677 46.3004" stroke="black" stroke-width="0.948324" stroke-linecap="round"/>
<path d="M95.1896 168.918C110.3 178.749 139.495 194.39 135.399 178.306" stroke="black" stroke-width="0.948324" stroke-linecap="round"/>
<path d="M132.933 74.2276C134.494 70.5017 137.849 63.9077 141.387 68.3788C144.924 72.8498 145.158 82.4158 147.239 78.1267L151.141 67.8589" stroke="black" stroke-width="0.948324" stroke-linecap="round"/>
<path d="M178.164 57.8715C172.301 63.4427 166.354 64.2499 164.064 64.5077C159.391 65.034 151.641 60.2403 151.641 55.0245C155.875 51.966 158.951 46.2173 159.934 43.8814C161.037 44.8146 162.472 44.4595 163.052 44.1653C163.798 43.6801 165.227 41.8541 164.984 38.4314C164.74 35.0088 162.255 35.9277 161.043 36.815L154.987 37.4675C155.242 31.8088 151.754 29.9205 149.978 29.6837C151.374 26.5491 148.877 25.1776 147.564 24.6387C145.679 26.9482 143.21 27.8786 142.166 28.3113C131.538 31.0916 125.051 27.2852 122.056 22.5344C118.806 17.7386 119.332 6.47696 128.527 3.73544C131.534 2.57845 138.662 1.62981 143.121 7.09117C156.246 2.26761 162.458 16.0725 164.163 21.0855L166.132 25.6563C183.237 29.2948 184.743 45.473 181.738 52.5582C180.376 55.7707 180.197 55.9408 178.254 57.7858L178.164 57.8715Z" fill="black"/>
<path d="M146.528 61.283C159.52 61.283 163.717 69.9606 165.174 74.844C167.837 83.2702 165.174 101.397 128.233 95.9594C126.104 95.6459 125.06 92.7835 129.233 90.0408C133.596 87.1723 138.242 85.3705 143.838 84.2325" stroke="black" stroke-width="0.948324" stroke-linecap="round"/>
<path d="M139.984 61.2836C131.828 63.2577 125.819 71.6812 128.225 90.0414" stroke="black" stroke-width="0.948324" stroke-linecap="round"/>
<path d="M115.022 99.2226C115.541 99.8806 117.524 100.9 121.295 99.7121C125.067 98.5245 126.579 96.669 126.864 95.8896" stroke="black" stroke-width="0.948324" stroke-linecap="round"/>
<path d="M111.643 97.6992C111.284 98.3207 111.287 99.5117 114.167 99.3039L115.021 99.2226L116.506 99.0812" stroke="black" stroke-width="0.948324" stroke-linecap="round"/>
<path d="M111.904 95.4077C111.211 95.4943 109.958 95.9495 110.493 97.0777C110.654 97.4181 111.081 97.6094 111.643 97.6997C112.946 97.9087 114.977 97.5768 116.135 97.3004" stroke="black" stroke-width="0.948324" stroke-linecap="round"/>
<path d="M125.717 91.5897C124.625 90.5536 122.343 88.4679 120.294 88.3195C119.774 88.2947 118.66 88.0894 118.363 87.4659C117.992 86.6866 116.285 87.5401 117.435 89.0988C118.586 90.6575 119.997 90.1379 119.18 91.4739C118.527 92.5427 114.577 93.0326 112.684 93.1439C112.015 93.1563 110.775 93.4928 111.161 94.7397C111.257 95.0484 111.528 95.2634 111.904 95.4077C113.05 95.8461 115.176 95.6311 116.359 95.4077" stroke="black" stroke-width="0.948324" stroke-linecap="round"/>
<path d="M123.529 62.9716C114.489 46.4912 121.558 39.8688 125.811 36.6993C125.309 49.1798 133.716 55.2141 137.035 57.3005L134.19 59.9558C130.561 62.7059 126.673 67.0682 123.529 62.9716Z" fill="black"/>
<path d="M154.978 37.559C154.294 41.4528 150.936 44.0249 147.562 43.4323C144.189 42.8397 141.908 39.2771 142.592 35.3833C143.276 31.4895 146.634 28.9173 150.008 29.51C153.381 30.1026 155.662 33.6652 154.978 37.559Z" stroke="black" stroke-width="0.948324"/>
<path d="M138.435 37.0297C137.751 40.9235 134.393 43.4956 131.019 42.903C127.646 42.3104 125.366 38.7478 126.05 34.854C126.734 30.9602 130.092 28.3881 133.465 28.9807C136.839 29.5733 139.119 33.1359 138.435 37.0297Z" stroke="black" stroke-width="0.948324"/>
<path d="M138.555 35.5672L142.659 35.8211" stroke="black" stroke-width="0.948324" stroke-linecap="round"/>
<path d="M140.85 39.5658C139.647 42.6551 137.187 45.2332 139.906 47.1895" stroke="black" stroke-width="0.948324" stroke-linecap="round"/>
<path d="M137.054 51.2684C137.877 52.1787 140.175 53.453 142.775 51.2684" stroke="black" stroke-width="0.948324" stroke-linecap="round"/>
<ellipse cx="131.553" cy="38.9538" rx="1.40714" ry="1.70698" transform="rotate(-16.8961 131.553 38.9538)" fill="black"/>
<ellipse cx="147.666" cy="39.3422" rx="1.36384" ry="1.70698" transform="rotate(-18.5025 147.666 39.3422)" fill="black"/>
<path d="M162.574 39.1572C162.783 39.722 162.985 41.025 162.124 41.7187" stroke="black" stroke-width="0.948324" stroke-linecap="round"/>
<path d="M127.71 27.9234C125.26 32.5981 123.057 44.0195 132.839 53.8705C142.621 63.7216 153.107 54.4825 157.128 48.6315L159.971 43.7181C161.152 44.7617 163.742 45.7007 164.654 41.1081C165.567 36.5155 163.766 35.8912 162.752 36.1531C162.202 36.2766 160.998 36.8219 160.577 38.0154" stroke="black" stroke-width="0.948324" stroke-linecap="round"/>
<path d="M154.977 37.2955L161.696 36.6274" stroke="black" stroke-width="0.948324" stroke-linecap="round"/>
<path d="M148.935 34.0681C149.996 34.2193 152.108 35.0688 152.072 37.2578" stroke="black" stroke-width="0.948324" stroke-linecap="round"/>
<path d="M128.726 34.9243C129.536 34.5686 131.515 34.1445 132.956 35.2939" stroke="black" stroke-width="0.948324" stroke-linecap="round"/>
<path d="M148.107 61.3407V56.8262" stroke="black" stroke-width="0.948324" stroke-linecap="round"/>
<path d="M138.243 57.75L138.242 61.758" stroke="black" stroke-width="0.948324" stroke-linecap="round"/>
</svg>
