<svg width="253" height="190" viewBox="0 0 253 190" fill="none" xmlns="http://www.w3.org/2000/svg">
<g clip-path="url(#clip0_1298_738756)">
<path d="M108.616 111.727C110.021 111.62 112.388 110.173 113.022 106.785C113.061 106.578 113.22 106.411 113.427 106.374C116.89 105.753 119.793 105.388 120.307 103.682C121.071 101.147 114.958 102.176 112.23 103.021" stroke="black" stroke-width="1.23705" stroke-linecap="round"/>
<path d="M104.093 105.094C108.87 101.019 121.204 94.3448 124.84 96.4526C127.993 98.2802 124.626 99.544 121.311 100.563" stroke="black" stroke-width="1.23705" stroke-linecap="round"/>
<path d="M121.992 102.682C123.497 103.914 124.617 106.965 117.057 109.314" stroke="black" stroke-width="1.23705" stroke-linecap="round"/>
<path d="M124.153 106.602C125.451 107.797 125.97 110.738 117.661 112.932" stroke="black" stroke-width="1.23705" stroke-linecap="round"/>
<path d="M99.877 155.369C108.016 155.369 113.292 155.52 117.211 153.41C121.582 151.056 123.901 151.592 128.666 152.355C132.434 152.957 128.515 147.079 118.869 147.682" stroke="black" stroke-width="1.23705" stroke-linecap="round"/>
<path d="M67.7242 45.6866C68.9754 31.571 62.8661 24.1465 59.6551 22.1985C70.0426 28.0528 80.2794 24.2481 84.0991 21.614L85.2696 27.8864C92.3868 28.6041 94.082 18.957 94.0399 14.0433C93.9752 6.46256 85.5889 -2.89764 68.9065 0.855788C52.2242 4.60952 43.0685 18.4092 40.5756 24.8398C28.6314 21.5561 15.8005 30.493 10.8781 35.3722C5.78821 40.4365 -4.92771 55.7473 2.59698 72.8421C12.749 95.9059 39.7536 90.1786 44.1615 87.9102C59.3913 80.0717 66.1599 63.3315 67.7242 45.6866Z" fill="black"/>
<path d="M90.5483 43.0852C90.1936 45.4812 89.3066 47.5296 88.1989 48.9068C87.0783 50.3003 85.8381 50.8957 84.7429 50.7335C83.648 50.5713 82.6337 49.642 81.9653 47.9832C81.3045 46.344 81.0495 44.1268 81.4046 41.7306C81.7593 39.3347 82.6463 37.2863 83.754 35.909C84.8746 34.5158 86.1148 33.9204 87.21 34.0826C88.3049 34.2446 89.3194 35.1741 89.9876 36.8327C90.6484 38.4721 90.9034 40.6893 90.5483 43.0852Z" stroke="black" stroke-width="1.23705"/>
<path d="M85.9834 45.5967C86.8923 45.7314 87.8258 44.5143 88.068 42.8784C88.3104 41.2422 87.7702 39.8069 86.8613 39.6723C85.9524 39.5377 85.0191 40.7547 84.7767 42.3906C84.5343 44.0268 85.0745 45.4621 85.9834 45.5967Z" fill="black"/>
<path d="M67.7656 44.5046L81.1055 43.0195" stroke="black" stroke-width="1.23705" stroke-linecap="round"/>
<path d="M86.7044 28.1328C87.8314 30.4015 91.1561 35.359 94.6276 38.1339C98.1783 40.9716 98.478 44.5892 96.2111 47.1956L92.6776 51.2961C94.6276 66.2074 91.7544 77.2493 73.4785 82.3894" stroke="black" stroke-width="1.23705" stroke-linecap="round"/>
<path d="M44.2263 90.9258C22.0808 107.08 24.7306 127.225 24.7306 152.121" stroke="black" stroke-width="1.23705" stroke-linecap="round"/>
<path d="M44.8271 91.2008L55.4588 100.504C55.8041 100.806 56.3465 100.627 56.445 100.179L59.2165 87.5036C59.3193 87.0338 59.9041 86.8677 60.2388 87.2135L67.4362 94.654" stroke="black" stroke-width="1.23705" stroke-linecap="round"/>
<path d="M67.4365 83.6895C68.0265 84.7945 68.8719 86.5904 69.6639 88.6772C70.7512 91.5417 71.7379 94.9553 71.8262 97.8853" stroke="black" stroke-width="1.23705" stroke-linecap="round"/>
<path d="M65.9283 104.793C66.7607 104.793 67.4356 103.983 67.4356 102.984C67.4356 101.985 66.7607 101.176 65.9283 101.176C65.0957 101.176 64.4209 101.985 64.4209 102.984C64.4209 103.983 65.0957 104.793 65.9283 104.793Z" fill="black"/>
<path d="M68.0404 113.536C68.873 113.536 69.5479 112.726 69.5479 111.727C69.5479 110.728 68.873 109.918 68.0404 109.918C67.208 109.918 66.5332 110.728 66.5332 111.727C66.5332 112.726 67.208 113.536 68.0404 113.536Z" fill="black"/>
<path d="M84.0513 63.4941C83.8571 64.6698 84.3621 67.0997 87.9347 67.4133" stroke="black" stroke-width="1.23705" stroke-linecap="round"/>
<path d="M71.0801 92.4336C73.8934 94.9459 80.0032 102.563 81.9325 112.933" stroke="black" stroke-width="1.23705" stroke-linecap="round"/>
<path d="M120.976 147.531C120.976 147.28 121.688 147.267 124.141 146.627C127.608 145.722 132.28 146.325 131.979 144.969C131.631 143.405 122.181 143.461 120.071 143.763" stroke="black" stroke-width="1.23705" stroke-linecap="round"/>
<path d="M117.21 141.502C120.074 140.648 130.625 140.899 127.911 143.461" stroke="black" stroke-width="1.23705" stroke-linecap="round"/>
<path d="M121.881 140.9C121.328 139.694 118.595 137.916 112.083 140.448C105.572 142.98 101.583 144.166 99.2715 144.517" stroke="black" stroke-width="1.23705" stroke-linecap="round"/>
<path d="M115.7 154.532C116.046 154.763 133.019 162.165 136.68 163.702C136.959 163.819 137.261 163.821 137.546 163.72L168.12 152.858C169.221 152.467 169.208 150.906 168.101 150.533L119.601 134.18C119.321 134.085 119.016 134.095 118.742 134.207L95.2012 143.831" stroke="#9254DE" stroke-width="1.23705" stroke-linecap="round"/>
<path d="M168.604 151.067C170.514 151.67 174.604 151.941 175.689 148.203C176.774 144.465 183.929 111.928 185.185 106.452C185.807 103.739 186.541 100.825 183.225 100.272C179.608 99.6691 172.574 98.7144 169.509 98.3125" stroke="#9254DE" stroke-width="1.23705" stroke-linecap="round"/>
<path d="M166.495 81.4306L145.092 80.0742" stroke="#FFC53D" stroke-width="1.23705" stroke-linecap="round"/>
<path d="M127.307 78.4989C127.936 78.4989 128.445 77.9893 128.445 77.3608C128.445 76.7322 127.936 76.2227 127.307 76.2227C126.678 76.2227 126.169 76.7322 126.169 77.3608C126.169 77.9893 126.678 78.4989 127.307 78.4989Z" stroke="black" stroke-width="0.742228"/>
<path d="M132.132 78.7997C132.761 78.7997 133.27 78.2901 133.27 77.6615C133.27 77.033 132.761 76.5234 132.132 76.5234C131.504 76.5234 130.994 77.033 130.994 77.6615C130.994 78.2901 131.504 78.7997 132.132 78.7997Z" stroke="black" stroke-width="0.742228"/>
<path d="M118.866 95.5992L124.052 74.4241C124.192 73.8533 124.716 73.461 125.303 73.4876L173.113 75.6347C173.896 75.6699 174.447 76.4188 174.248 77.1771L161.971 123.857C161.804 124.492 161.168 124.884 160.526 124.748L116.153 115.344" stroke="#7DE2FF" stroke-width="1.23705" stroke-linecap="round"/>
<path d="M128.814 99.9695C129.015 97.2064 130.442 92.7647 134.542 97.1057C139.667 102.532 145.545 92.7345 146.45 90.9258" stroke="#FFC53D" stroke-width="1.23705" stroke-linecap="round"/>
<path d="M116.754 134.939C116.051 134.487 114.704 133.1 114.946 131.171C115.186 129.241 116.754 122.127 117.809 118.66" stroke="#9254DE" stroke-width="1.23705" stroke-linecap="round"/>
<path d="M135.446 107.205C137.104 106.602 140.66 105.783 142.078 109.165C144.038 113.837 149.464 121.374 160.015 105.162" stroke="#FFC53D" stroke-width="1.23705" stroke-linecap="round" stroke-dasharray="2.47 2.47"/>
<path d="M158.364 132.523C159.462 132.912 160.562 132.306 160.82 131.169C161.078 130.033 160.397 128.796 159.298 128.407C158.199 128.018 157.1 128.624 156.842 129.76C156.584 130.897 157.265 132.134 158.364 132.523Z" stroke="#FF85C0" stroke-width="1.23705"/>
<path d="M163.206 130.109C164.666 130.626 168.838 132.104 170.801 132.798C172.39 133.362 173.072 133.997 172.493 136.55C171.93 139.03 171.181 142.235 170.906 143.539C170.713 144.455 170.047 145.309 168.554 144.938C167.06 144.567 161.221 142.407 158.487 141.373C157.467 141.012 155.797 139.773 156.351 137.334L156.972 134.599" stroke="#FF85C0" stroke-width="1.23705" stroke-linecap="round"/>
<path d="M161.074 134.117L164.168 138.071" stroke="#FF85C0" stroke-width="1.23705" stroke-linecap="round"/>
<path d="M164.168 138.072L172.456 134.02" stroke="#FF85C0" stroke-width="1.23705" stroke-linecap="round"/>
<path d="M158.868 138.721L162.293 135.805" stroke="#FF85C0" stroke-width="1.23705" stroke-linecap="round"/>
<path d="M166.272 137.213L169.099 142.343" stroke="#FF85C0" stroke-width="1.23705" stroke-linecap="round"/>
<path d="M107.63 165.028L164.061 189.273C164.407 189.422 164.802 189.403 165.133 189.223L251.506 142.324" stroke="black" stroke-width="1.23705" stroke-linecap="round"/>
<path d="M196.876 132.247C194.098 131.724 188.67 132.661 191.919 139.428C194.398 144.589 198.228 147.282 199.355 148.404" stroke="black" stroke-width="1.23705" stroke-linecap="round"/>
<path d="M203.561 155.387C197.368 150.148 197.394 136.673 198.262 129.819C198.301 129.506 198.623 129.317 198.922 129.418C205.073 131.503 212.56 130.363 216.066 129.378C216.362 129.295 216.666 129.499 216.701 129.805C218.586 146.227 213.971 153.537 211.402 155.391C211.381 155.406 211.362 155.418 211.339 155.429C209.916 156.126 206.446 157.074 203.627 155.433C203.604 155.42 203.582 155.404 203.561 155.387Z" stroke="black" stroke-width="1.23705" stroke-linecap="round"/>
<path d="M207.494 130.617C212.822 130.617 217.141 129.808 217.141 128.809C217.141 127.81 212.822 127 207.494 127C202.167 127 197.848 127.81 197.848 128.809C197.848 129.808 202.167 130.617 207.494 130.617Z" fill="black"/>
<path d="M209.654 122.88C211.266 121.451 213.522 116.989 209.654 110.572C205.787 104.155 210.018 98.2173 212.618 96.0508" stroke="black" stroke-width="1.23705" stroke-linecap="round"/>
<path d="M205.082 116.549C202.838 113.524 199.321 106.153 203.203 100.873" stroke="black" stroke-width="1.23705" stroke-linecap="round"/>
<path d="M221.33 155.508C225.538 153.197 218.004 153.642 213.892 153.702L211.716 155.869C216.251 156.772 219.697 156.23 221.33 155.508Z" fill="black"/>
<path d="M90.5684 114.075L96.911 109.403C97.9473 108.251 100.642 107.001 103.129 111.213C105.617 115.425 104.351 125.888 93.0295 132.533" stroke="black" stroke-width="1.23705" stroke-linecap="round"/>
<path d="M57.7158 124.195C58.4598 130.136 69.3949 151.561 89.1175 145.838L94.6282 144.042" stroke="black" stroke-width="1.23705" stroke-linecap="round"/>
<path d="M42.1963 153.207C45.888 160.96 65.4541 168.22 83.8425 164.881" stroke="black" stroke-width="1.23705" stroke-linecap="round"/>
<path d="M89.449 151.381C88.0476 157.119 86.0871 161.527 83.8428 164.881C88.1001 164.494 91.9471 164.517 95.6789 157.861C98.3187 153.153 97.1684 147.174 94.7968 144.137" stroke="black" stroke-width="1.23705" stroke-linecap="round"/>
</g>
<defs>
<clipPath id="clip0_1298_738756">
<rect width="252.267" height="190" fill="white"/>
</clipPath>
</defs>
</svg>
