<svg width="203" height="192" viewBox="0 0 203 192" fill="none" xmlns="http://www.w3.org/2000/svg">
<path d="M9.23924 87.9174C10.366 87.9174 11.2795 87.004 11.2795 85.8772C11.2795 84.7504 10.366 83.8369 9.23924 83.8369C8.11243 83.8369 7.19897 84.7504 7.19897 85.8772C7.19897 87.004 8.11243 87.9174 9.23924 87.9174Z" stroke="#4BD4FB" stroke-width="0.784716"/>
<path d="M13.2379 86.0849C17.3532 85.6613 23.8104 86.1622 24.5736 89.3455C25.3368 92.5288 22.4224 93.693 20.8699 93.8773C14.9589 94.8167 7.12109 94.3746 7.12109 89.3455" stroke="#4BD4FB" stroke-width="0.784716" stroke-linecap="round"/>
<path d="M11.7506 90.8997C12.0106 90.8997 12.2214 90.6889 12.2214 90.4288C12.2214 90.1688 12.0106 89.958 11.7506 89.958C11.4906 89.958 11.2798 90.1688 11.2798 90.4288C11.2798 90.6889 11.4906 90.8997 11.7506 90.8997Z" stroke="#4BD4FB" stroke-width="0.784716"/>
<path d="M16.3029 90.4288C16.3029 90.6575 16.0899 90.8997 15.7536 90.8997C15.4174 90.8997 15.2043 90.6575 15.2043 90.4288C15.2043 90.2002 15.4174 89.958 15.7536 89.958C16.0899 89.958 16.3029 90.2002 16.3029 90.4288Z" stroke="#4BD4FB" stroke-width="0.784716"/>
<path d="M19.754 90.8997C20.0141 90.8997 20.2249 90.6889 20.2249 90.4288C20.2249 90.1688 20.0141 89.958 19.754 89.958C19.494 89.958 19.2832 90.1688 19.2832 90.4288C19.2832 90.6889 19.494 90.8997 19.754 90.8997Z" stroke="#4BD4FB" stroke-width="0.784716"/>
<path d="M164.064 30.4761C165.104 30.4761 165.948 29.6329 165.948 28.5928C165.948 27.5527 165.104 26.7095 164.064 26.7095C163.024 26.7095 162.181 27.5527 162.181 28.5928C162.181 29.6329 163.024 30.4761 164.064 30.4761Z" stroke="#9254DE" stroke-width="0.784716"/>
<path d="M167.764 26.9453C169.144 26.9453 173.088 26.9453 174.943 26.9453C176.446 26.9453 177.169 27.2777 177.169 29.6042C177.169 31.8647 177.15 34.7928 177.169 35.9746C177.182 36.8054 176.768 37.725 175.388 37.8579C174.008 37.9908 168.469 37.9133 165.872 37.8579C164.908 37.8579 163.201 37.3111 163.201 35.0882V32.5954" stroke="#9254DE" stroke-width="0.784716" stroke-linecap="round"/>
<path d="M166.81 30.8682L170.263 33.2223" stroke="#9254DE" stroke-width="0.784716" stroke-linecap="round"/>
<path d="M170.262 33.2224L176.54 27.4155" stroke="#9254DE" stroke-width="0.784716" stroke-linecap="round"/>
<path d="M171.855 31.8101L173.571 33.5364L175.286 35.2628" stroke="#9254DE" stroke-width="0.784716" stroke-linecap="round"/>
<path d="M165.556 35.2628L168.087 31.8101" stroke="#9254DE" stroke-width="0.784716" stroke-linecap="round"/>
<path d="M171.621 136.156C171.613 136.131 171.616 136.116 171.619 136.107C171.623 136.094 171.633 136.08 171.649 136.068C171.665 136.056 171.682 136.051 171.695 136.051C171.705 136.05 171.72 136.052 171.741 136.067L171.97 135.749L171.741 136.067L174.943 138.365C175.246 138.583 175.656 138.581 175.957 138.36L179.132 136.025C179.153 136.009 179.168 136.008 179.178 136.008C179.191 136.008 179.208 136.013 179.224 136.025C179.241 136.036 179.25 136.051 179.255 136.063C179.258 136.072 179.261 136.087 179.253 136.112L178.057 139.867C177.943 140.223 178.072 140.612 178.376 140.83L181.577 143.128C181.599 143.143 181.605 143.157 181.608 143.166C181.612 143.179 181.612 143.196 181.606 143.215C181.6 143.235 181.589 143.248 181.579 143.256C181.572 143.262 181.559 143.27 181.532 143.27L177.591 143.293C177.218 143.295 176.887 143.537 176.774 143.894L175.578 147.648C175.57 147.674 175.559 147.684 175.551 147.689C175.54 147.697 175.524 147.703 175.503 147.703C175.483 147.703 175.467 147.697 175.456 147.69C175.448 147.685 175.437 147.674 175.428 147.649L174.189 143.909C174.072 143.554 173.739 143.315 173.365 143.317L169.425 143.339C169.398 143.34 169.385 143.332 169.377 143.326C169.367 143.318 169.356 143.305 169.35 143.286C169.343 143.266 169.344 143.249 169.347 143.237C169.35 143.227 169.356 143.213 169.378 143.198L172.552 140.863C172.854 140.642 172.978 140.251 172.86 139.896L171.621 136.156Z" stroke="#FFC53D" stroke-width="0.784716"/>
<path d="M44.4745 123.319C43.9103 121.141 42.0367 117.124 39.0573 118.482C36.0777 119.839 37.8157 122.272 39.0573 123.319C39.8927 123.885 41.6888 124.49 42.1891 122.385C42.6894 120.281 40.5809 119.415 39.9883 120.349C39.6758 120.716 39.3229 121.639 40.4116 122.385" stroke="#9254DE" stroke-width="0.784716" stroke-linecap="round"/>
<path d="M57.622 16.1554C57.6136 16.1301 57.6164 16.1154 57.6197 16.1061C57.624 16.094 57.6337 16.0795 57.65 16.0675C57.6662 16.0555 57.683 16.0506 57.6958 16.0501C57.7057 16.0498 57.7205 16.0514 57.7422 16.067L57.971 15.7482L57.7422 16.067L60.9433 18.3648C61.2471 18.5829 61.6568 18.5806 61.958 18.359L65.1326 16.0247C65.1541 16.0089 65.169 16.0071 65.1788 16.0073C65.1917 16.0076 65.2085 16.0124 65.2249 16.0241C65.2413 16.0359 65.2512 16.0503 65.2556 16.0624C65.259 16.0716 65.262 16.0863 65.2539 16.1117L64.0577 19.8662C63.9442 20.2225 64.073 20.6114 64.3768 20.8295L67.5779 23.1273C67.5996 23.1429 67.6059 23.1565 67.6087 23.1659C67.6124 23.1782 67.6131 23.1957 67.6069 23.2149C67.6008 23.2342 67.5901 23.248 67.58 23.2559C67.5723 23.262 67.5593 23.2694 67.5326 23.2696L63.5922 23.2921C63.2182 23.2943 62.8882 23.537 62.7747 23.8933L61.5785 27.6478C61.5704 27.6732 61.5594 27.6834 61.5513 27.689C61.5407 27.6963 61.5244 27.7023 61.5042 27.7024C61.484 27.7026 61.4675 27.6967 61.4569 27.6895C61.4487 27.684 61.4376 27.674 61.4292 27.6486L60.1901 23.9081C60.0725 23.5531 59.7397 23.3142 59.3658 23.3163L55.4254 23.3389C55.3987 23.339 55.3856 23.3318 55.3778 23.3258C55.3676 23.318 55.3568 23.3043 55.3504 23.2851C55.3441 23.2659 55.3446 23.2485 55.3481 23.2361C55.3508 23.2266 55.3569 23.213 55.3784 23.1972L58.553 20.8628C58.8543 20.6413 58.9787 20.251 58.8611 19.896L57.622 16.1554Z" stroke="#FFC53D" stroke-width="0.784716"/>
<path d="M106.23 87.9043V101.244" stroke="black" stroke-width="0.784716" stroke-linecap="round"/>
<path d="M116.275 89.4736V102.186" stroke="black" stroke-width="0.784716" stroke-linecap="round"/>
<path d="M92.7812 147.243C89.4645 147.656 81.7001 149.179 79.9994 152.276C79.4891 153.205 78.8972 155.466 80.6115 157.077C82.3261 158.687 85.4591 158.264 86.8112 157.851L94.6947 154.676" stroke="black" stroke-width="0.784716" stroke-linecap="round"/>
<path d="M137.98 123.869C131.791 124.069 104.458 137.301 91.5647 143.893C90.4668 151.156 95.0999 156.372 97.5537 158.071C110.405 154.34 136.782 146.778 139.477 146.38C142.172 145.982 144.842 144.059 145.84 143.147C152.828 134.988 147.671 128.057 144.218 125.611C141.761 123.869 139.64 123.816 137.98 123.869Z" fill="black"/>
<path d="M80.0101 122.018C84.3949 122.311 103.523 129.724 112.586 133.61L91.859 143.967C82.5827 146.688 76.8842 145.791 75.144 145.205C65.0984 140.365 69.0342 128.425 73.0255 124.002C75.5978 121.813 78.439 121.914 80.0101 122.018Z" fill="black"/>
<path d="M128.812 148.655C131.552 149.972 133.034 151.697 133.785 153.112C135.395 156.797 132.504 159.012 129.204 157.971C127.38 157.395 126.95 157.01 125.984 156.208C125.493 155.802 123.204 153.674 120.59 151.162" stroke="black" stroke-width="0.784716" stroke-linecap="round"/>
<path d="M76.1885 85.7711L78.2927 124.009C78.3385 124.841 79.0265 125.492 79.8598 125.492H138.562C139.429 125.492 140.132 124.79 140.132 123.923V84.8651C140.132 83.9901 139.416 83.2841 138.541 83.2959L77.7344 84.1156C76.8422 84.1276 76.1395 84.8801 76.1885 85.7711Z" fill="black"/>
<rect x="77.981" y="126.042" width="62.1495" height="2.98192" rx="1.49096" fill="black"/>
<path d="M116.431 66.7169C121.898 66.6384 133.931 70.7974 138.717 83.9021" stroke="black" stroke-width="0.784716" stroke-linecap="round"/>
<path d="M104.426 66.6387C91.9495 69.0713 85.9856 74.4074 81.2773 84.6872" stroke="black" stroke-width="0.784716" stroke-linecap="round"/>
<path d="M146.172 79.0499L149.233 73.9492" stroke="#FF85C0" stroke-width="0.784716" stroke-linecap="round"/>
<path d="M149.233 80.4625L153.392 77.0098" stroke="#FF85C0" stroke-width="0.784716" stroke-linecap="round"/>
<path d="M149.861 82.8171C150.672 83.131 152.513 83.4292 153.392 82.1108" stroke="#FF85C0" stroke-width="0.784716" stroke-linecap="round"/>
<path d="M69.585 78.0952L64.8767 73.23" stroke="#FF85C0" stroke-width="0.784716" stroke-linecap="round"/>
<path d="M74.3709 77.3101L71.5459 70.0122" stroke="#FF85C0" stroke-width="0.784716" stroke-linecap="round"/>
<path d="M68.4079 80.8418L64.8767 79.5078" stroke="#FF85C0" stroke-width="0.784716" stroke-linecap="round"/>
<path d="M141.857 92.7046C144.761 97.2559 148.057 102.67 141.857 112.858" stroke="black" stroke-width="0.784716" stroke-linecap="round"/>
<path d="M116.511 67.1094C117.218 65.0691 116.574 63.6961 115.947 63.4346C112.18 66.8873 106.467 65.6056 104.348 63.513C103.595 64.2036 104.034 66.2462 104.348 66.874C108.429 71.3939 114.236 68.8619 116.511 67.1094Z" fill="black"/>
<path d="M99.7966 79.6645L101.057 77.7302C102.285 75.8449 104.676 75.0922 106.763 75.9337L109.766 77.1447C111.64 77.9003 113.787 77.3762 115.102 75.8422L118.551 71.8174" stroke="black" stroke-width="0.784716" stroke-linecap="round"/>
<path d="M75.2339 95.5938C74.0568 98.3664 72.66 105.089 76.4895 109.797" stroke="black" stroke-width="0.784716" stroke-linecap="round"/>
<path d="M127.33 35.0311C125.603 41.2304 124.74 41.7797 122.229 44.5262C122.229 41.8119 121.763 37.2559 121.763 35.3587C113.54 35.3587 106.601 32.0023 104.16 30.3241C104.247 36.0154 98.9115 39.7367 98.9115 39.7367C98.9115 39.7367 99.6769 42.0351 100.114 47.1792C100.464 51.2945 99.4582 50.4992 98.9115 49.5871C97.3371 44.5087 94.7567 45.8658 93.6633 47.1792C80.2466 25.3791 100.879 21.1669 104.816 21.5682C107.789 19.029 111.937 17.0391 114.853 16.7472C125.368 15.6946 130.129 24.9792 127.33 35.0311Z" fill="black"/>
<path d="M99.0962 53.4665C100.509 62.0898 109.989 68.2905 116.831 61.3051C123.672 54.3197 122.303 41.5331 121.572 35.5664" stroke="black" stroke-width="0.784716" stroke-linecap="round"/>
<path d="M93.5082 46.6445C92.645 48.7633 93.4548 53.4582 99.0954 53.4582" stroke="black" stroke-width="0.784716" stroke-linecap="round"/>
<path d="M95.997 47.8086C95.8722 48.262 95.972 49.3362 97.37 50.0058" stroke="black" stroke-width="0.784716" stroke-linecap="round"/>
<path d="M121.382 52.3598C123.223 51.5923 124.521 48.7501 124.021 44.1987" stroke="black" stroke-width="0.784716" stroke-linecap="round"/>
<path d="M111.024 57.5385C112.829 58.0093 112.715 56.7136 114.085 55.5767" stroke="black" stroke-width="0.784716" stroke-linecap="round"/>
<circle cx="116.411" cy="46.576" r="1.17707" fill="black"/>
<circle cx="106.054" cy="46.7327" r="1.17707" fill="black"/>
<path d="M103.491 44.0418C103.738 43.3125 104.807 41.9633 107.1 42.4009" stroke="black" stroke-width="0.784716" stroke-linecap="round"/>
<path d="M114.477 42.6292C115.023 42.1555 116.511 41.4923 118.086 42.6292" stroke="black" stroke-width="0.784716" stroke-linecap="round"/>
<path d="M110.68 45.9253C110.497 47.475 110.373 50.6175 111.338 50.7905" stroke="black" stroke-width="0.784716" stroke-linecap="round"/>
<path d="M155.902 117.108C176.854 122.915 214.489 129.585 197.414 109.81C192.025 104.501 184.073 98.2752 171.283 92.7822" stroke="black" stroke-width="0.784716" stroke-linecap="round"/>
<path d="M178.581 76.5375C191.608 68.1934 212.591 50.9558 192.314 48.7586C172.037 46.5614 153.523 54.1731 146.8 58.2536" stroke="black" stroke-width="0.784716" stroke-linecap="round"/>
<path d="M128.123 64.3435C136.755 45.7457 150.723 7.20042 137.54 1.80157C121.061 -4.94699 99.7164 14.514 82.2957 60.9692" stroke="black" stroke-width="0.784716" stroke-linecap="round"/>
<path d="M63.0993 48.3222C43.7953 37.7547 4.38679 21.5006 1.18515 41.0244C-2.0165 60.5481 37.099 76.8336 57.057 82.5358" stroke="black" stroke-width="0.784716" stroke-linecap="round"/>
<path d="M62.1803 92.7822C34.009 107.143 -1.28918 127.003 18.2628 137.354C26.2668 141.592 46.748 139.002 56.1646 135.157" stroke="black" stroke-width="0.784716" stroke-linecap="round"/>
<ellipse cx="108.271" cy="186.792" rx="38.8435" ry="4.7083" fill="black"/>
</svg>
