<svg width="26" height="21" viewBox="0 0 26 21" fill="none" xmlns="http://www.w3.org/2000/svg">
<g clip-path="url(#clip0_1139_646334)">
<path d="M4.90721 19.9541V18.6454C4.90721 18.1436 4.60177 17.8165 4.07823 17.8165C3.81651 17.8165 3.53293 17.9038 3.33659 18.1873C3.18397 17.9474 2.96587 17.8165 2.63867 17.8165C2.42047 17.8165 2.20246 17.8819 2.02788 18.1219V17.8601H1.56982V19.9541H2.02788V18.798C2.02788 18.4273 2.22422 18.2527 2.52966 18.2527C2.83491 18.2527 2.98773 18.4491 2.98773 18.798V19.9541H3.44579V18.798C3.44579 18.4273 3.66379 18.2527 3.94737 18.2527C4.25281 18.2527 4.40543 18.4491 4.40543 18.798V19.9541H4.90721ZM11.6908 17.8601H10.9492V17.2276H10.4912V17.8601H10.0767V18.2745H10.4911V19.2343C10.4911 19.7142 10.6874 19.9977 11.211 19.9977C11.4073 19.9977 11.6253 19.9323 11.7781 19.8451L11.6472 19.4524C11.5163 19.5397 11.3637 19.5615 11.2546 19.5615C11.0365 19.5615 10.9492 19.4307 10.9492 19.2125V18.2745H11.6908V17.8601ZM15.5735 17.8164C15.3117 17.8164 15.1373 17.9474 15.0282 18.1219V17.8601H14.5701V19.9541H15.0282V18.7763C15.0282 18.4273 15.1808 18.231 15.4644 18.231C15.5516 18.231 15.6607 18.2528 15.7479 18.2746L15.8788 17.8384C15.7916 17.8165 15.6607 17.8165 15.5735 17.8165V17.8164ZM9.70591 18.0346C9.48771 17.8819 9.18237 17.8165 8.85517 17.8165C8.33173 17.8165 7.98277 18.0782 7.98277 18.4927C7.98277 18.8417 8.24449 19.038 8.70255 19.1035L8.92065 19.1253C9.16061 19.1688 9.29147 19.2343 9.29147 19.3434C9.29147 19.496 9.11699 19.6051 8.81155 19.6051C8.50621 19.6051 8.26625 19.496 8.11353 19.387L7.89543 19.736C8.13539 19.9105 8.46259 19.9977 8.78969 19.9977C9.40047 19.9977 9.74953 19.7142 9.74953 19.3216C9.74953 18.9507 9.46595 18.7544 9.02965 18.689L8.81155 18.6672C8.61521 18.6453 8.46259 18.6018 8.46259 18.4709C8.46259 18.3182 8.61521 18.231 8.85517 18.231C9.11699 18.231 9.37871 18.34 9.50957 18.4054L9.70591 18.0346ZM21.8773 17.8165C21.6155 17.8165 21.441 17.9474 21.3319 18.1219V17.8601H20.8738V19.9541H21.3319V18.7763C21.3319 18.4273 21.4846 18.231 21.7681 18.231C21.8554 18.231 21.9646 18.2528 22.0518 18.2746L22.1826 17.8384C22.0954 17.8165 21.9646 17.8165 21.8773 17.8165ZM16.0315 18.9071C16.0315 19.5397 16.4677 19.9977 17.144 19.9977C17.4493 19.9977 17.6674 19.9323 17.8855 19.7579L17.6674 19.387C17.4929 19.5179 17.3185 19.5833 17.1221 19.5833C16.7513 19.5833 16.4896 19.3216 16.4896 18.9071C16.4896 18.5145 16.7513 18.2527 17.1221 18.231C17.3185 18.231 17.4929 18.2963 17.6674 18.4273L17.8855 18.0565C17.6674 17.8819 17.4493 17.8165 17.144 17.8165C16.4677 17.8165 16.0315 18.2746 16.0315 18.9071ZM20.2632 18.9071V17.8601H19.8051V18.1219C19.6524 17.9256 19.4343 17.8165 19.1507 17.8165C18.5618 17.8165 18.1037 18.2746 18.1037 18.9071C18.1037 19.5397 18.5618 19.9977 19.1507 19.9977C19.456 19.9977 19.6742 19.8887 19.8051 19.6924V19.9541H20.2632V18.9071ZM18.5835 18.9071C18.5835 18.5363 18.8235 18.231 19.2161 18.231C19.5869 18.231 19.8487 18.5145 19.8487 18.9071C19.8487 19.2779 19.5869 19.5833 19.2161 19.5833C18.8235 19.5614 18.5835 19.2779 18.5835 18.9071ZM13.1087 17.8165C12.4979 17.8165 12.0616 18.2527 12.0616 18.9071C12.0616 19.5615 12.4978 19.9977 13.1304 19.9977C13.4358 19.9977 13.7412 19.9105 13.9812 19.7142L13.763 19.387C13.5885 19.5179 13.3704 19.6051 13.1523 19.6051C12.8687 19.6051 12.5851 19.4743 12.5197 19.1034H14.0684V18.929C14.0903 18.2527 13.6977 17.8165 13.1087 17.8165ZM13.1087 18.2091C13.3922 18.2091 13.5886 18.3837 13.6321 18.7109H12.5415C12.5851 18.4273 12.7815 18.2091 13.1087 18.2091ZM24.473 18.9071V17.0312H24.0149V18.1219C23.8622 17.9256 23.6441 17.8165 23.3605 17.8165C22.7716 17.8165 22.3135 18.2746 22.3135 18.9071C22.3135 19.5397 22.7716 19.9977 23.3605 19.9977C23.6659 19.9977 23.884 19.8887 24.0149 19.6924V19.9541H24.473V18.9071ZM22.7934 18.9071C22.7934 18.5363 23.0333 18.231 23.426 18.231C23.7968 18.231 24.0585 18.5145 24.0585 18.9071C24.0585 19.2779 23.7968 19.5833 23.426 19.5833C23.0333 19.5614 22.7934 19.2779 22.7934 18.9071ZM7.48099 18.9071V17.8601H7.02293V18.1219C6.87021 17.9256 6.65211 17.8165 6.36853 17.8165C5.77961 17.8165 5.32155 18.2746 5.32155 18.9071C5.32155 19.5397 5.77961 19.9977 6.36853 19.9977C6.67397 19.9977 6.89207 19.8887 7.02293 19.6924V19.9541H7.48099V18.9071ZM5.77961 18.9071C5.77961 18.5363 6.01957 18.231 6.41215 18.231C6.78297 18.231 7.04479 18.5145 7.04479 18.9071C7.04479 19.2779 6.78297 19.5833 6.41215 19.5833C6.01957 19.5614 5.77961 19.2779 5.77961 18.9071Z" fill="black"/>
<path d="M9.55115 1.95898H16.4221V14.3049H9.55115V1.95898Z" fill="#FF5F00"/>
<path d="M9.98908 8.13181C9.98908 5.6234 11.1669 3.39848 12.9773 1.95882C11.6468 0.911838 9.96732 0.279297 8.13508 0.279297C3.79424 0.279297 0.282471 3.79106 0.282471 8.13181C0.282471 12.4725 3.79424 15.9843 8.13498 15.9843C9.96722 15.9843 11.6467 15.3518 12.9773 14.3047C11.1669 12.8869 9.98908 10.6402 9.98908 8.13181Z" fill="#EB001B"/>
<path d="M25.6928 8.13181C25.6928 12.4725 22.181 15.9843 17.8403 15.9843C16.008 15.9843 14.3285 15.3518 12.9979 14.3047C14.8302 12.8651 15.9862 10.6402 15.9862 8.13181C15.9862 5.6234 14.8083 3.39848 12.9979 1.95882C14.3284 0.911838 16.008 0.279297 17.8403 0.279297C22.181 0.279297 25.6928 3.81292 25.6928 8.13181Z" fill="#F79E1B"/>
</g>
<defs>
<clipPath id="clip0_1139_646334">
<rect width="25.4414" height="19.7731" fill="white" transform="translate(0.279297 0.279297)"/>
</clipPath>
</defs>
</svg>
