<svg width="36" height="19" viewBox="0 0 36 19" fill="none" xmlns="http://www.w3.org/2000/svg">
<path d="M18.5496 7.30398C18.5314 8.74348 19.8325 9.54673 20.8126 10.0244C21.8196 10.5144 22.1579 10.8286 22.1539 11.2669C22.1464 11.9375 21.3506 12.2335 20.606 12.245C19.3069 12.2651 18.5515 11.8942 17.951 11.6137L17.483 13.8036C18.0855 14.0812 19.2011 14.3234 20.358 14.334C23.0736 14.334 24.8502 12.9935 24.8599 10.9151C24.8705 8.27736 21.2114 8.13136 21.2364 6.95236C21.245 6.59486 21.5861 6.21336 22.3336 6.11636C22.7036 6.06736 23.725 6.02986 24.883 6.56311L25.3375 4.44436C24.7147 4.21761 23.9144 4.00048 22.9179 4.00048C20.3619 4.00048 18.5641 5.35923 18.5496 7.30398ZM29.7048 4.18298C29.2089 4.18298 28.791 4.47223 28.6045 4.91611L24.7254 14.1784H27.439L27.979 12.686H31.295L31.6082 14.1784H34L31.9129 4.18298H29.7048ZM30.0844 6.88311L30.8675 10.6365H28.7227L30.0844 6.88311ZM15.2595 4.18311L13.1205 14.1782H15.7064L17.8444 4.18286H15.2595M11.4341 4.18286L8.74263 10.9862L7.65387 5.20161C7.52612 4.55586 7.02163 4.18298 6.46138 4.18298H2.06163L2 4.47323C2.90325 4.66923 3.9295 4.98536 4.55125 5.32361C4.93175 5.53023 5.04025 5.71086 5.16525 6.20186L7.22738 14.1784H9.96L14.1495 4.18298L11.4341 4.18286Z" fill="url(#paint0_linear_1139_646319)"/>
<defs>
<linearGradient id="paint0_linear_1139_646319" x1="16.7117" y1="14.5413" x2="17.0108" y2="3.92862" gradientUnits="userSpaceOnUse">
<stop stop-color="#222357"/>
<stop offset="1" stop-color="#254AA5"/>
</linearGradient>
</defs>
</svg>
